<mxfile host="app.diagrams.net" modified="2022-06-09T16:52:08.736Z" agent="5.0 (Macintosh; Intel Mac OS X 10_15_7) AppleWebKit/605.1.15 (KHTML, like Gecko) Version/15.5 Safari/605.1.15" etag="gomcpTAoKPq5L9EK-S-g" version="19.0.3" type="github">
  <diagram id="0OuX2L7p2YiCW_sP_NVh" name="Page-1">
    <mxGraphModel dx="770" dy="545" grid="1" gridSize="10" guides="1" tooltips="1" connect="1" arrows="1" fold="1" page="1" pageScale="1" pageWidth="827" pageHeight="1169" math="0" shadow="0">
      <root>
        <mxCell id="0" />
        <mxCell id="1" parent="0" />
        <mxCell id="RiLjqM5EfCnXXm7U_EA--4" value="" style="rounded=1;whiteSpace=wrap;html=1;rotation=90;" parent="1" vertex="1">
          <mxGeometry x="175" y="805" width="505" height="255" as="geometry" />
        </mxCell>
        <mxCell id="RiLjqM5EfCnXXm7U_EA--5" value="" style="rounded=0;whiteSpace=wrap;html=1;rotation=90;" parent="1" vertex="1">
          <mxGeometry x="227.5" y="792.5" width="400" height="235" as="geometry" />
        </mxCell>
        <mxCell id="RiLjqM5EfCnXXm7U_EA--6" value="" style="ellipse;whiteSpace=wrap;html=1;aspect=fixed;rounded=1;" parent="1" vertex="1">
          <mxGeometry x="402.5" y="1119" width="50" height="50" as="geometry" />
        </mxCell>
        <mxCell id="RiLjqM5EfCnXXm7U_EA--9" value="ログイン" style="html=1;rounded=1;" parent="1" vertex="1">
          <mxGeometry x="352.5" y="1050" width="150" height="28" as="geometry" />
        </mxCell>
        <mxCell id="RiLjqM5EfCnXXm7U_EA--10" value="" style="shape=table;startSize=0;container=1;collapsible=1;childLayout=tableLayout;fixedRows=1;rowLines=0;fontStyle=0;align=center;resizeLast=1;strokeColor=none;fillColor=none;collapsible=0;rounded=1;" parent="1" vertex="1">
          <mxGeometry x="337.5" y="940" width="180" height="30" as="geometry" />
        </mxCell>
        <mxCell id="RiLjqM5EfCnXXm7U_EA--11" value="" style="shape=tableRow;horizontal=0;startSize=0;swimlaneHead=0;swimlaneBody=0;fillColor=none;collapsible=0;dropTarget=0;points=[[0,0.5],[1,0.5]];portConstraint=eastwest;top=0;left=0;right=0;bottom=1;rounded=1;" parent="RiLjqM5EfCnXXm7U_EA--10" vertex="1">
          <mxGeometry width="180" height="30" as="geometry" />
        </mxCell>
        <mxCell id="RiLjqM5EfCnXXm7U_EA--12" value="" style="shape=partialRectangle;connectable=0;fillColor=none;top=0;left=0;bottom=0;right=0;fontStyle=1;overflow=hidden;rounded=1;" parent="RiLjqM5EfCnXXm7U_EA--11" vertex="1">
          <mxGeometry width="20" height="30" as="geometry">
            <mxRectangle width="20" height="30" as="alternateBounds" />
          </mxGeometry>
        </mxCell>
        <mxCell id="RiLjqM5EfCnXXm7U_EA--13" value="" style="shape=partialRectangle;connectable=0;fillColor=none;top=0;left=0;bottom=0;right=0;align=left;spacingLeft=6;fontStyle=5;overflow=hidden;rounded=1;fontColor=#969696;" parent="RiLjqM5EfCnXXm7U_EA--11" vertex="1">
          <mxGeometry x="20" width="160" height="30" as="geometry">
            <mxRectangle width="160" height="30" as="alternateBounds" />
          </mxGeometry>
        </mxCell>
        <mxCell id="RiLjqM5EfCnXXm7U_EA--14" value="" style="shape=table;startSize=0;container=1;collapsible=1;childLayout=tableLayout;fixedRows=1;rowLines=0;fontStyle=0;align=center;resizeLast=1;strokeColor=none;fillColor=none;collapsible=0;rounded=1;" parent="1" vertex="1">
          <mxGeometry x="337.5" y="992.5" width="180" height="30" as="geometry" />
        </mxCell>
        <mxCell id="RiLjqM5EfCnXXm7U_EA--15" value="" style="shape=tableRow;horizontal=0;startSize=0;swimlaneHead=0;swimlaneBody=0;fillColor=none;collapsible=0;dropTarget=0;points=[[0,0.5],[1,0.5]];portConstraint=eastwest;top=0;left=0;right=0;bottom=1;rounded=1;" parent="RiLjqM5EfCnXXm7U_EA--14" vertex="1">
          <mxGeometry width="180" height="30" as="geometry" />
        </mxCell>
        <mxCell id="RiLjqM5EfCnXXm7U_EA--16" value="" style="shape=partialRectangle;connectable=0;fillColor=none;top=0;left=0;bottom=0;right=0;fontStyle=1;overflow=hidden;rounded=1;" parent="RiLjqM5EfCnXXm7U_EA--15" vertex="1">
          <mxGeometry width="20" height="30" as="geometry">
            <mxRectangle width="20" height="30" as="alternateBounds" />
          </mxGeometry>
        </mxCell>
        <mxCell id="RiLjqM5EfCnXXm7U_EA--17" value="" style="shape=partialRectangle;connectable=0;fillColor=none;top=0;left=0;bottom=0;right=0;align=left;spacingLeft=6;fontStyle=5;overflow=hidden;rounded=1;fontColor=#969696;" parent="RiLjqM5EfCnXXm7U_EA--15" vertex="1">
          <mxGeometry x="20" width="160" height="30" as="geometry">
            <mxRectangle width="160" height="30" as="alternateBounds" />
          </mxGeometry>
        </mxCell>
        <mxCell id="RiLjqM5EfCnXXm7U_EA--18" value="" style="line;strokeWidth=2;html=1;rounded=1;fontColor=#969696;" parent="1" vertex="1">
          <mxGeometry x="337.5" y="905" width="72" height="10" as="geometry" />
        </mxCell>
        <mxCell id="RiLjqM5EfCnXXm7U_EA--19" value="" style="line;strokeWidth=2;html=1;rounded=1;fontColor=#969696;" parent="1" vertex="1">
          <mxGeometry x="445" y="905" width="72.5" height="10" as="geometry" />
        </mxCell>
        <UserObject label="メールアドレス" placeholders="1" name="Variable" id="RiLjqM5EfCnXXm7U_EA--21">
          <mxCell style="text;html=1;strokeColor=none;fillColor=none;align=center;verticalAlign=middle;whiteSpace=wrap;overflow=hidden;rounded=1;fontColor=#969696;" parent="1" vertex="1">
            <mxGeometry x="337.5" y="945" width="102.5" height="20" as="geometry" />
          </mxCell>
        </UserObject>
        <UserObject label="パスワード" placeholders="1" name="Variable" id="RiLjqM5EfCnXXm7U_EA--22">
          <mxCell style="text;html=1;strokeColor=none;fillColor=none;align=center;verticalAlign=middle;whiteSpace=wrap;overflow=hidden;rounded=1;fontColor=#969696;" parent="1" vertex="1">
            <mxGeometry x="337.5" y="1002.5" width="80" height="20" as="geometry" />
          </mxCell>
        </UserObject>
        <mxCell id="RiLjqM5EfCnXXm7U_EA--23" value="&lt;font color=&quot;#000000&quot;&gt;or&lt;/font&gt;" style="text;html=1;strokeColor=none;fillColor=none;align=center;verticalAlign=middle;whiteSpace=wrap;rounded=0;fontColor=#969696;" parent="1" vertex="1">
          <mxGeometry x="397.5" y="895" width="60" height="30" as="geometry" />
        </mxCell>
        <mxCell id="RiLjqM5EfCnXXm7U_EA--25" value="" style="swimlane;startSize=0;rounded=1;fontColor=#000000;" parent="1" vertex="1">
          <mxGeometry x="385" y="730" width="85" height="85" as="geometry">
            <mxRectangle x="385" y="730" width="50" height="40" as="alternateBounds" />
          </mxGeometry>
        </mxCell>
      </root>
    </mxGraphModel>
  </diagram>
</mxfile>
